<?xml version="1.0" encoding="utf-8"?>
<!-- Generator: Adobe Illustrator 21.0.0, SVG Export Plug-In . SVG Version: 6.00 Build 0)  -->
<svg version="1.1" id="Слой_1" xmlns="http://www.w3.org/2000/svg" xmlns:xlink="http://www.w3.org/1999/xlink" x="0px" y="0px"
	 viewBox="0 0 1366 768" style="enable-background:new 0 0 1366 768;" xml:space="preserve">
<style type="text/css">
	.st0{fill:#DB8F1B;}
	.st1{filter:url(#Adobe_OpacityMaskFilter);}
	.st2{opacity:0.75;mask:url(#SVGID_1_);}
	.st3{fill:#FFFFFF;}
	.st4{fill:url(#SVGID_2_);}
	.st5{filter:url(#Adobe_OpacityMaskFilter_1_);}
	.st6{opacity:0.75;mask:url(#SVGID_3_);}
	.st7{fill:#CA4F23;}
	.st8{filter:url(#Adobe_OpacityMaskFilter_2_);}
	.st9{opacity:0.75;mask:url(#SVGID_4_);}
	.st10{fill:#B61251;}
	.st11{filter:url(#Adobe_OpacityMaskFilter_3_);}
	.st12{opacity:0.75;mask:url(#SVGID_5_);}
	.st13{fill:#C5216F;}
	.st14{filter:url(#Adobe_OpacityMaskFilter_4_);}
	.st15{opacity:0.75;mask:url(#SVGID_6_);}
	.st16{filter:url(#Adobe_OpacityMaskFilter_5_);}
	.st17{opacity:0.75;mask:url(#SVGID_7_);}
	.st18{filter:url(#Adobe_OpacityMaskFilter_6_);}
	.st19{opacity:0.75;mask:url(#SVGID_8_);}
	.st20{fill:#C6362E;}
	.st21{filter:url(#Adobe_OpacityMaskFilter_7_);}
	.st22{opacity:0.75;mask:url(#SVGID_9_);}
</style>
<g>
	<g>
		<g>
			<path class="st0" d="M667.9,146.3c0.6-3.4,0-19.2,0-19.2c-8.6-7.9-9.4-20.9-9.4-20.9c-3,0.2-3.3-4.8-3.4-6.4
				c-0.1-1.6-2.1-8.9-2-12.5c0.1-3.6,4.6-2.4,4.6-2.4c0-28.7,14.8-31.5,25.2-31.5c10.4,0,25.2,2.8,25.2,31.5c0,0,4.5-1.3,4.6,2.4
				c0.1,3.6-1.9,10.9-2,12.5c-0.1,1.6-0.4,6.6-3.4,6.4c0,0-0.9,13-9.4,20.9c0,0-0.6,15.8,0,19.2H667.9z"/>
		</g>
		<defs>
			<filter id="Adobe_OpacityMaskFilter" filterUnits="userSpaceOnUse" x="653" y="53.5" width="59.6" height="92.9">
				
					<feColorMatrix  type="matrix" values="-1 0 0 0 1  0 -1 0 0 1  0 0 -1 0 1  0 0 0 1 0" color-interpolation-filters="sRGB" result="source"/>
			</filter>
		</defs>
		<mask maskUnits="userSpaceOnUse" x="653" y="53.5" width="59.6" height="92.9" id="SVGID_1_">
			<g class="st1">
			</g>
		</mask>
		<g class="st2">
		<a xlink:href="#head"><path class="st3" d="M667.9,146.3c0.6-3.4,0-19.2,0-19.2c-8.6-7.9-9.4-20.9-9.4-20.9c-3,0.2-3.3-4.8-3.4-6.4
				c-0.1-1.6-2.1-8.9-2-12.5c0.1-3.6,4.6-2.4,4.6-2.4c0-28.7,14.8-31.5,25.2-31.5c10.4,0,25.2,2.8,25.2,31.5c0,0,4.5-1.3,4.6,2.4
				c0.1,3.6-1.9,10.9-2,12.5c-0.1,1.6-0.4,6.6-3.4,6.4c0,0-0.9,13-9.4,20.9c0,0-0.6,15.8,0,19.2H667.9z"/></a>
			
		</g>
	</g>
</g>
<g>
	<g>
		<g>
			<linearGradient id="SVGID_2_" gradientUnits="userSpaceOnUse" x1="687.4002" y1="399.0197" x2="681.7069" y2="358.9159">
				<stop  offset="0.4513" style="stop-color:#FFFFFF"/>
				<stop  offset="0.6847" style="stop-color:#EDEDED"/>
				<stop  offset="0.8886" style="stop-color:#E3E3E3"/>
			</linearGradient>
			<polyline class="st4" points="741.3,366.7 682.8,399.9 624.4,366.7 			"/>
		</g>
		<defs>
			<filter id="Adobe_OpacityMaskFilter_1_" filterUnits="userSpaceOnUse" x="624.4" y="366.7" width="116.9" height="33.3">
				
					<feColorMatrix  type="matrix" values="-1 0 0 0 1  0 -1 0 0 1  0 0 -1 0 1  0 0 0 1 0" color-interpolation-filters="sRGB" result="source"/>
			</filter>
		</defs>
		<mask maskUnits="userSpaceOnUse" x="624.4" y="366.7" width="116.9" height="33.3" id="SVGID_3_">
			<g class="st5">
			</g>
		</mask>
		<g class="st6">
			<polyline class="st3" points="741.3,366.7 682.8,399.9 624.4,366.7 			"/>
		</g>
	</g>
</g>
<g>
	<g>
		<g>
			<path class="st7" d="M647.5,280.7c1.2-3.7-0.9-32.9-4.9-37.5c-4-4.6-6.4-19.5-6.4-19.5l-17.1-52.1c4-7.3,34.4-14.3,38.7-16.2
				c4.3-1.8,9.4-5.8,10-9.1h29.8c0.6,3.4,5.8,7.3,10,9.1c4.3,1.8,34.7,8.8,38.7,16.2l-17.1,52.1c0,0-2.4,14.9-6.4,19.5
				c-4,4.6-6.1,33.8-4.9,37.5H647.5z"/>
		</g>
		<defs>
			<filter id="Adobe_OpacityMaskFilter_2_" filterUnits="userSpaceOnUse" x="619.2" y="146.3" width="127.3" height="134.4">
				
					<feColorMatrix  type="matrix" values="-1 0 0 0 1  0 -1 0 0 1  0 0 -1 0 1  0 0 0 1 0" color-interpolation-filters="sRGB" result="source"/>
			</filter>
		</defs>
		<mask maskUnits="userSpaceOnUse" x="619.2" y="146.3" width="127.3" height="134.4" id="SVGID_4_">
			<g class="st8">
			</g>
		</mask>
		<g class="st9">
		
			<a xlink:href="#chest">
			<path class="st3" d="M647.5,280.7c1.2-3.7-0.9-32.9-4.9-37.5c-4-4.6-6.4-19.5-6.4-19.5l-17.1-52.1c4-7.3,34.4-14.3,38.7-16.2
				c4.3-1.8,9.4-5.8,10-9.1h29.8c0.6,3.4,5.8,7.3,10,9.1c4.3,1.8,34.7,8.8,38.7,16.2l-17.1,52.1c0,0-2.4,14.9-6.4,19.5
				c-4,4.6-6.1,33.8-4.9,37.5H647.5z"/>
			</a>
			
		</g>
	</g>
</g>
<g>
	<g>
		<g>
			<path class="st10" d="M636.2,223.8c0,0.4,0,0.8,0,1.2c0,10.7-9.1,42.1-11.3,50.9c-2.1,8.8,0.6,8.5-1.5,35.4
				c-2.1,26.8-15.5,52.1-13.1,61c2.4,8.8,0.9,17.4,0.9,25c0,7.6,9.8,13.1,8.5,14.6c-1.2,1.5-3,2.1-3,2.1s2.7,2.1,1.2,4.3
				c-1.5,2.1-2.1,1.2-4,2.5c-1.8,1.2-9.4-3.7-9.4-3.7s0.9,3.4-0.9,3.7c-1.8,0.3-5.5-4.3-8.5-10.7c-3-6.4,2.4-33.8,2.4-33.8
				s3.4-9.1,2.7-48.5c-0.6-39.3,3-46.6,4.6-54.2c1.5-7.6,4-33.5,5.5-64c1.5-30.5,4.9-30.5,8.8-37.8L636.2,223.8z"/>
		</g>
		<defs>
			<filter id="Adobe_OpacityMaskFilter_3_" filterUnits="userSpaceOnUse" x="594.2" y="171.6" width="42.1" height="249.2">
				
					<feColorMatrix  type="matrix" values="-1 0 0 0 1  0 -1 0 0 1  0 0 -1 0 1  0 0 0 1 0" color-interpolation-filters="sRGB" result="source"/>
			</filter>
		</defs>
		<mask maskUnits="userSpaceOnUse" x="594.2" y="171.6" width="42.1" height="249.2" id="SVGID_5_">
			<g class="st11">
			</g>
		</mask>
		<g class="st12">
		<a xlink:href="#arms">
		<path class="st3" d="M636.2,223.8c0,0.4,0,0.8,0,1.2c0,10.7-9.1,42.1-11.3,50.9c-2.1,8.8,0.6,8.5-1.5,35.4
				c-2.1,26.8-15.5,52.1-13.1,61c2.4,8.8,0.9,17.4,0.9,25c0,7.6,9.8,13.1,8.5,14.6c-1.2,1.5-3,2.1-3,2.1s2.7,2.1,1.2,4.3
				c-1.5,2.1-2.1,1.2-4,2.5c-1.8,1.2-9.4-3.7-9.4-3.7s0.9,3.4-0.9,3.7c-1.8,0.3-5.5-4.3-8.5-10.7c-3-6.4,2.4-33.8,2.4-33.8
				s3.4-9.1,2.7-48.5c-0.6-39.3,3-46.6,4.6-54.2c1.5-7.6,4-33.5,5.5-64c1.5-30.5,4.9-30.5,8.8-37.8L636.2,223.8z"/>
		</a>
			
		</g>
	</g>
</g>
<g>
	<g>
		<g>
			<path class="st13" d="M682.8,399.9c0,0-6,63.1-8.5,71.6c-2.4,8.5-8.5,37.2-5.8,50.3c2.7,13.1,3.7,40.2-0.6,67
				c-4.3,26.8-0.9,34.7-2.4,44.8c-1.5,10.1,8.2,18.6,6.1,25c-2.1,6.4-2.4,21.3-1.5,32.6c0.9,11.3-0.3,21.6-4.6,22.9
				c-4.3,1.2-6.7-1.8-6.7-1.8c-3.4,0-13.1-3-16.2-7.9c-3-4.9,7.3-22.2,7.9-49.4c0.6-27.1-17.4-88.7-17.1-114.9
				c0.3-26.2,4.3-58.5,5-69.2c0.7-10.7-13.8-71.6-14.1-104.2L682.8,399.9z"/>
		</g>
		<defs>
			<filter id="Adobe_OpacityMaskFilter_4_" filterUnits="userSpaceOnUse" x="624.4" y="366.7" width="58.5" height="347.7">
				
					<feColorMatrix  type="matrix" values="-1 0 0 0 1  0 -1 0 0 1  0 0 -1 0 1  0 0 0 1 0" color-interpolation-filters="sRGB" result="source"/>
			</filter>
		</defs>
		<mask maskUnits="userSpaceOnUse" x="624.4" y="366.7" width="58.5" height="347.7" id="SVGID_6_">
			<g class="st14">
			</g>
		</mask>
		<g class="st15">
		<a xlink:href="#legs">
		<path class="st3" d="M682.8,399.9c0,0-6,63.1-8.5,71.6c-2.4,8.5-8.5,37.2-5.8,50.3c2.7,13.1,3.7,40.2-0.6,67
				c-4.3,26.8-0.9,34.7-2.4,44.8c-1.5,10.1,8.2,18.6,6.1,25c-2.1,6.4-2.4,21.3-1.5,32.6c0.9,11.3-0.3,21.6-4.6,22.9
				c-4.3,1.2-6.7-1.8-6.7-1.8c-3.4,0-13.1-3-16.2-7.9c-3-4.9,7.3-22.2,7.9-49.4c0.6-27.1-17.4-88.7-17.1-114.9
				c0.3-26.2,4.3-58.5,5-69.2c0.7-10.7-13.8-71.6-14.1-104.2L682.8,399.9z"/>
		</a>
			
		</g>
	</g>
</g>
<g>
	<g>
		<g>
			<path class="st13" d="M746.5,171.6c4,7.3,7.3,7.3,8.8,37.8c1.5,30.5,4,56.4,5.5,64c1.5,7.6,5.2,14.9,4.6,54.2
				c-0.6,39.3,2.7,48.5,2.7,48.5s5.5,27.4,2.4,33.8c-3,6.4-6.7,11-8.5,10.7c-1.8-0.3-0.9-3.7-0.9-3.7s-7.6,4.9-9.4,3.7
				c-1.8-1.2-2.4-0.3-4-2.5c-1.5-2.1,1.2-4.3,1.2-4.3s-1.8-0.6-3-2.1c-1.2-1.5,8.5-7,8.5-14.6c0-7.6-1.5-16.2,0.9-25
				c2.4-8.8-11-34.1-13.1-61s0.6-26.5-1.5-35.4c-2.1-8.8-11.3-40.2-11.3-50.9c0-0.4,0-0.8,0-1.2L746.5,171.6z"/>
		</g>
		<defs>
			<filter id="Adobe_OpacityMaskFilter_5_" filterUnits="userSpaceOnUse" x="729.4" y="171.6" width="42.1" height="249.2">
				
					<feColorMatrix  type="matrix" values="-1 0 0 0 1  0 -1 0 0 1  0 0 -1 0 1  0 0 0 1 0" color-interpolation-filters="sRGB" result="source"/>
			</filter>
		</defs>
		<mask maskUnits="userSpaceOnUse" x="729.4" y="171.6" width="42.1" height="249.2" id="SVGID_7_">
			<g class="st16">
				
			</g>
		</mask>
		<g class="st17">
		<a xlink:href="#test"></a>
		<a xlink:href="#arms">
		<path class="st3" d="M746.5,171.6c4,7.3,7.3,7.3,8.8,37.8c1.5,30.5,4,56.4,5.5,64c1.5,7.6,5.2,14.9,4.6,54.2
				c-0.6,39.3,2.7,48.5,2.7,48.5s5.5,27.4,2.4,33.8c-3,6.4-6.7,11-8.5,10.7c-1.8-0.3-0.9-3.7-0.9-3.7s-7.6,4.9-9.4,3.7
				c-1.8-1.2-2.4-0.3-4-2.5c-1.5-2.1,1.2-4.3,1.2-4.3s-1.8-0.6-3-2.1c-1.2-1.5,8.5-7,8.5-14.6c0-7.6-1.5-16.2,0.9-25
				c2.4-8.8-11-34.1-13.1-61s0.6-26.5-1.5-35.4c-2.1-8.8-11.3-40.2-11.3-50.9c0-0.4,0-0.8,0-1.2L746.5,171.6z"/>
		</a>
			
		</g>
	</g>
</g>
<g>
	<g>
		<g>
			<path class="st10" d="M741.3,366.7c-0.3,32.6-14.9,93.6-14.1,104.2c0.7,10.7,4.7,43,5,69.2c0.3,26.2-17.7,87.8-17.1,114.9
				c0.6,27.1,11,44.5,7.9,49.4c-3,4.9-12.8,7.9-16.2,7.9c0,0-2.4,3-6.7,1.8c-4.3-1.2-5.5-11.6-4.6-22.9c0.9-11.3,0.6-26.2-1.5-32.6
				c-2.1-6.4,7.6-14.9,6.1-25c-1.5-10.1,1.8-18-2.4-44.8c-4.3-26.8-3.3-53.9-0.6-67c2.7-13.1-3.4-41.8-5.8-50.3
				c-2.4-8.5-8.5-71.6-8.5-71.6L741.3,366.7z"/>
		</g>
		<defs>
			<filter id="Adobe_OpacityMaskFilter_6_" filterUnits="userSpaceOnUse" x="682.8" y="366.7" width="58.5" height="347.7">
				
					<feColorMatrix  type="matrix" values="-1 0 0 0 1  0 -1 0 0 1  0 0 -1 0 1  0 0 0 1 0" color-interpolation-filters="sRGB" result="source"/>
			</filter>
		</defs>
		<mask maskUnits="userSpaceOnUse" x="682.8" y="366.7" width="58.5" height="347.7" id="SVGID_8_">
			<g class="st18">
			</g>
		</mask>
		<g class="st19">
			<path class="st3" d="M741.3,366.7c-0.3,32.6-14.9,93.6-14.1,104.2c0.7,10.7,4.7,43,5,69.2c0.3,26.2-17.7,87.8-17.1,114.9
				c0.6,27.1,11,44.5,7.9,49.4c-3,4.9-12.8,7.9-16.2,7.9c0,0-2.4,3-6.7,1.8c-4.3-1.2-5.5-11.6-4.6-22.9c0.9-11.3,0.6-26.2-1.5-32.6
				c-2.1-6.4,7.6-14.9,6.1-25c-1.5-10.1,1.8-18-2.4-44.8c-4.3-26.8-3.3-53.9-0.6-67c2.7-13.1-3.4-41.8-5.8-50.3
				c-2.4-8.5-8.5-71.6-8.5-71.6L741.3,366.7z"/>
		</g>
	</g>
</g>
<g>
	<g>
		<g>
			<path class="st20" d="M718.1,280.7c1.2,3.7,23.5,53.3,23.2,85.9l-58.5,33.3l-58.5-33.3c-0.3-32.6,21.9-82.3,23.2-85.9H718.1z"/>
		</g>
		<defs>
			<filter id="Adobe_OpacityMaskFilter_7_" filterUnits="userSpaceOnUse" x="624.3" y="280.7" width="116.9" height="119.2">
				
					<feColorMatrix  type="matrix" values="-1 0 0 0 1  0 -1 0 0 1  0 0 -1 0 1  0 0 0 1 0" color-interpolation-filters="sRGB" result="source"/>
			</filter>
		</defs>
		<mask maskUnits="userSpaceOnUse" x="624.3" y="280.7" width="116.9" height="119.2" id="SVGID_9_">
			<g class="st21">
			</g>
		</mask>
		<g class="st22">
			<path class="st3" d="M718.1,280.7c1.2,3.7,23.5,53.3,23.2,85.9l-58.5,33.3l-58.5-33.3c-0.3-32.6,21.9-82.3,23.2-85.9H718.1z"/>
		</g>
	</g>
</g>
</svg>
